<?xml version="1.0" encoding="UTF-8"?>
<svg id="Layer_2" data-name="Layer 2" xmlns="http://www.w3.org/2000/svg" viewBox="0 0 302.52 274.93">
  <defs>
    <style>
      .cls-1 {
        fill: #f9f1e8;
      }
    </style>
  </defs>
  <g id="Layer_1-2" data-name="Layer 1">
    <g>
      <path class="cls-1" d="M302.52,1.15l-.04,172.35c0,11.66-1.07,22.05-2.79,33.22-4.58,29.89-26.28,53-55.63,60.22-30.55,6.47-64.73,4.71-87.85-16.82l-8.92,24.81h-7.98L238.02,0h7.93l-63.2,176.23,3.05,21.25c1.41,9.82,6.84,18.92,15.59,23.49,8.05,4.2,17.14,3.99,25.84,2.28,20.82-4.1,21.17-27.13,21.84-47.75V1.15s53.45,0,53.45,0Z"/>
      <path class="cls-1" d="M203.96,0l-98.81,274.93h-7.93l2.04-5.69c-15.57,1.55-29.57,1.38-44.06-2.03C15.62,257.89-.37,222.97,0,183.82l50.39-5.74c.91,17.66,3.28,37.8,20.76,44.17,8.42,3.06,17.76,2.71,26.13.08,17.27-5.43,17.56-25.72,18.71-43.84V1.17s53.33,0,53.33,0l.49,71.14L195.83,0h8.13Z"/>
    </g>
  </g>
</svg>